<svg xmlns="http://www.w3.org/2000/svg" width="69" height="23" viewBox="0 0 69 23">
  <path fill="#e52728" fill-rule="evenodd"
    d="M5.641 8.115c-2.178-.742-4.38-1.693-4.357-3.849 0-1.97 1.877-3.153 4.102-3.176 1.321-.023 2.758.348 4.033 1.066.347.209.672.394.996-.023.348-.44 0-.672-.255-.835C8.77.441 7.01 0 5.41.023 2.651.07.124 1.438.124 4.266c0 2.968 2.666 4.08 5.516 5.054 2.456.835 4.681 1.647 4.589 4.011-.07 1.994-1.947 2.899-4.404 2.968-2.062.047-3.151-.37-4.866-1.205-.278-.14-.556-.21-.835.231-.255.418-.092.557.232.766 1.251.811 3.198 1.39 5.377 1.344 3.082-.046 5.608-1.275 5.7-4.15 0-3.315-2.92-4.196-5.793-5.17zm17.172-.881c-1.622-.904-2.989-1.322-4.611-1.322-2.99 0-5.516 2.342-5.516 5.75 0 3.71 2.387 5.774 5.098 5.774 1.483 0 3.083-.65 4.404-1.971v1.02c0 .37.092.58.556.58.463 0 .556-.21.556-.58V8.069c0-.395-.14-.65-.487-.835zm-.625 6.932c-1.228 1.577-2.874 2.296-4.38 2.25-2.11-.07-3.963-1.716-3.963-4.73 0-2.922 2.016-4.753 4.357-4.753 1.135 0 2.433.255 3.986 1.02v6.213zM35.28 7.234c-1.622-.904-2.989-1.322-4.611-1.322-2.99 0-5.516 2.342-5.516 5.75 0 3.71 2.387 5.774 5.098 5.774 1.484 0 3.083-.65 4.404-1.971v1.02c0 .37.092.58.556.58.464 0 .556-.21.556-.58V8.069c0-.395-.139-.65-.487-.835zm-.625 6.932c-1.228 1.577-2.874 2.296-4.38 2.25-2.11-.07-3.963-1.716-3.963-4.73 0-2.922 2.016-4.753 4.357-4.753 1.135 0 2.433.255 3.986 1.02v6.213zm14.183-2.69c0-1.251-.44-2.596-1.275-3.593l.974-.788c.324-.255.347-.418.092-.72-.255-.3-.463-.3-.741-.069l-1.02.858c-1.066-.927-2.34-1.252-3.639-1.252-3.059 0-5.608 2.504-5.608 5.565 0 3.06 2.55 5.588 5.608 5.588a5.592 5.592 0 002.967-.858c.88.672 1.321 1.646 1.274 2.62-.069 1.576-1.413 3.106-4.009 3.106-2.062 0-3.43-.95-4.38-2.318-.232-.348-.37-.464-.765-.278-.324.162-.44.301-.209.718.974 1.762 2.99 2.945 5.54 2.945 3.151 0 4.774-2.064 4.89-4.127.069-1.252-.464-2.411-1.623-3.2a5.55 5.55 0 001.924-4.196zm-5.609 4.568c-2.387 0-4.45-2.017-4.45-4.567 0-2.55 2.063-4.544 4.45-4.544 2.41 0 4.45 1.994 4.45 4.544s-2.04 4.567-4.45 4.567zM51.805 0a.88.88 0 10.001 1.761A.88.88 0 0051.805 0zm.023 6.283c-.487 0-.556.209-.556.58v9.622c0 .37.07.58.556.58.486 0 .556-.21.556-.58V6.863c0-.371-.07-.58-.556-.58zm8.39-.37c-3.292 0-5.447 2.573-5.447 5.865.023 5.68 5.77 6.724 9.2 4.707.395-.232.557-.394.279-.789-.255-.347-.533-.231-.95-.023a6.286 6.286 0 01-2.782.65c-2.364 0-4.565-1.322-4.588-4.545h6.767c3.847 0 2.572-5.935-2.48-5.866zm-4.219 4.891c.325-2.249 1.878-3.848 4.218-3.872 3.57-.046 4.612 3.872 2.457 3.872h-6.675zm12.196-2.269c-.33.242-.815.12-.815-.384-.007-.479.43-.618.78-.383a.047.047 0 00.073-.01c.038-.044.019-.063-.004-.086-.396-.307-1.005-.114-.999.48a.623.623 0 001.034.475c.029-.025.038-.044.007-.079a.051.051 0 00-.076-.013zm-.375-1.573a1.2 1.2 0 000 2.398A1.19 1.19 0 0069 8.158a1.188 1.188 0 00-1.18-1.196zm0 2.252c-.564 0-1.018-.47-1.018-1.056 0-.584.454-1.05 1.018-1.05.562 0 1.015.466 1.015 1.05 0 .587-.453 1.056-1.015 1.056z" />
</svg>
